<?xml version="1.0" encoding="UTF-8"?>
<!DOCTYPE svg PUBLIC "-//W3C//DTD SVG 1.1//EN" "http://www.w3.org/Graphics/SVG/1.1/DTD/svg11.dtd">
<svg xmlns="http://www.w3.org/2000/svg" version="1.1" width="100%" height="100%" xmlns:xlink="http://www.w3.org/1999/xlink">
<g><path style="opacity:1" fill="#b9bbbe" d="M 114.5,77.5 C 110.702,74.2039 107.036,70.7039 103.5,67C 101.833,66.3333 100.167,66.3333 98.5,67C 92.9647,72.7029 87.2981,78.2029 81.5,83.5C 77.8704,79.369 74.037,75.369 70,71.5C 69.3333,70.5 69.3333,69.5 70,68.5C 78.0751,59.9212 86.5751,51.9212 95.5,44.5C 104.425,51.9212 112.925,59.9212 121,68.5C 120.332,72.3708 118.165,75.3708 114.5,77.5 Z"/></g>
<g><path style="opacity:1" fill="#b9bbbe" d="M 114.5,77.5 C 124.845,87.8447 134.845,98.5114 144.5,109.5C 139.849,115.817 134.516,121.484 128.5,126.5C 121.703,119.202 114.703,112.035 107.5,105C 106.5,104.333 105.5,104.333 104.5,105C 96.9854,112.348 89.6521,119.848 82.5,127.5C 87.9104,133.914 93.9104,139.581 100.5,144.5C 100.158,145.338 99.4916,145.672 98.5,145.5C 94.1485,144.607 90.1485,142.94 86.5,140.5C 77.2022,130.702 67.7022,121.035 58,111.5C 57.8333,110.833 57.6667,110.167 57.5,109.5C 65.1523,100.514 73.1523,91.8476 81.5,83.5C 87.2981,78.2029 92.9647,72.7029 98.5,67C 100.167,66.3333 101.833,66.3333 103.5,67C 107.036,70.7039 110.702,74.2039 114.5,77.5 Z"/></g>
<g><path style="opacity:1" fill="#b9bbbe" d="M 128.5,126.5 C 128.611,127.117 128.944,127.617 129.5,128C 126.629,130.703 123.962,133.536 121.5,136.5C 114.839,139.944 107.839,142.611 100.5,144.5C 93.9104,139.581 87.9104,133.914 82.5,127.5C 89.6521,119.848 96.9854,112.348 104.5,105C 105.5,104.333 106.5,104.333 107.5,105C 114.703,112.035 121.703,119.202 128.5,126.5 Z"/></g>
<g><path style="opacity:1" fill="#b9bbbe" d="M 86.5,140.5 C 90.1485,142.94 94.1485,144.607 98.5,145.5C 106.017,148.676 113.684,151.676 121.5,154.5C 129.947,158.267 138.613,161.767 147.5,165C 148.383,169.371 147.383,173.371 144.5,177C 143.167,177.667 141.833,177.667 140.5,177C 127.576,172.136 114.576,167.47 101.5,163C 99.5273,162.505 97.5273,162.338 95.5,162.5C 88.4555,159.704 81.4555,156.704 74.5,153.5C 66.3826,150.067 58.0493,146.901 49.5,144C 48.7069,142.915 48.0402,141.748 47.5,140.5C 48.7639,137.875 49.9305,135.208 51,132.5C 51.6891,131.643 52.5224,130.977 53.5,130.5C 63.1285,134.098 72.7951,137.598 82.5,141C 84.0657,141.765 85.3991,141.598 86.5,140.5 Z"/></g>
<g><path style="opacity:1" fill="#b9bbbe" d="M 121.5,154.5 C 113.684,151.676 106.017,148.676 98.5,145.5C 99.4916,145.672 100.158,145.338 100.5,144.5C 107.839,142.611 114.839,139.944 121.5,136.5C 122.601,137.598 123.934,137.765 125.5,137C 131.206,134.931 136.872,132.765 142.5,130.5C 145.782,132.948 147.782,136.281 148.5,140.5C 148.471,142.029 147.804,143.196 146.5,144C 138.667,146.833 130.833,149.667 123,152.5C 121.97,152.836 121.47,153.503 121.5,154.5 Z"/></g>
<g><path style="opacity:1" fill="#b9bbbe" d="M 74.5,153.5 C 81.4555,156.704 88.4555,159.704 95.5,162.5C 81.6747,167.887 67.6747,172.887 53.5,177.5C 50.0617,174.623 48.2284,170.957 48,166.5C 56.1263,162.232 64.6263,158.732 73.5,156C 74.2524,155.329 74.5858,154.496 74.5,153.5 Z"/></g>
</svg>
